<?xml version="1.0" standalone="no"?><svg xmlns="http://www.w3.org/2000/svg" viewBox="0 0 1440 320"><path fill="#bb9b68" fill-opacity="1" d="M0,64L21.8,64C43.6,64,87,64,131,80C174.5,96,218,128,262,144C305.5,160,349,160,393,138.7C436.4,117,480,75,524,80C567.3,85,611,139,655,154.7C698.2,171,742,149,785,133.3C829.1,117,873,107,916,85.3C960,64,1004,32,1047,53.3C1090.9,75,1135,149,1178,160C1221.8,171,1265,117,1309,106.7C1352.7,96,1396,128,1418,144L1440,160L1440,0L1418.2,0C1396.4,0,1353,0,1309,0C1265.5,0,1222,0,1178,0C1134.5,0,1091,0,1047,0C1003.6,0,960,0,916,0C872.7,0,829,0,785,0C741.8,0,698,0,655,0C610.9,0,567,0,524,0C480,0,436,0,393,0C349.1,0,305,0,262,0C218.2,0,175,0,131,0C87.3,0,44,0,22,0L0,0Z"></path></svg>