<?xml version="1.0" standalone="no"?><svg xmlns="http://www.w3.org/2000/svg" viewBox="0 0 1440 320"><path fill="#0099ff" fill-opacity="1" d="M0,128L13.3,138.7C26.7,149,53,171,80,192C106.7,213,133,235,160,229.3C186.7,224,213,192,240,165.3C266.7,139,293,117,320,144C346.7,171,373,245,400,266.7C426.7,288,453,256,480,208C506.7,160,533,96,560,90.7C586.7,85,613,139,640,165.3C666.7,192,693,192,720,192C746.7,192,773,192,800,208C826.7,224,853,256,880,245.3C906.7,235,933,181,960,170.7C986.7,160,1013,192,1040,218.7C1066.7,245,1093,267,1120,266.7C1146.7,267,1173,245,1200,213.3C1226.7,181,1253,139,1280,144C1306.7,149,1333,203,1360,202.7C1386.7,203,1413,149,1427,122.7L1440,96L1440,320L1426.7,320C1413.3,320,1387,320,1360,320C1333.3,320,1307,320,1280,320C1253.3,320,1227,320,1200,320C1173.3,320,1147,320,1120,320C1093.3,320,1067,320,1040,320C1013.3,320,987,320,960,320C933.3,320,907,320,880,320C853.3,320,827,320,800,320C773.3,320,747,320,720,320C693.3,320,667,320,640,320C613.3,320,587,320,560,320C533.3,320,507,320,480,320C453.3,320,427,320,400,320C373.3,320,347,320,320,320C293.3,320,267,320,240,320C213.3,320,187,320,160,320C133.3,320,107,320,80,320C53.3,320,27,320,13,320L0,320Z"></path></svg>